HIERARCHY
ROOT SpineBase
{
  OFFSET 0.000000 0.000000 0.000000
  CHANNELS 6 Xposition Yposition Zposition Zrotation Xrotation Yrotation
  JOINT SpineMid
  {
    OFFSET 0.000000 30.630760 0.000000
    CHANNELS 3 Zrotation Xrotation Yrotation
    JOINT SpineShoulder
    {
      OFFSET -0.198447 22.659783 -0.669085
      CHANNELS 3 Zrotation Xrotation Yrotation
      JOINT Neck
      {
        OFFSET -0.129736 7.456623 -0.521906
        CHANNELS 3 Zrotation Xrotation Yrotation
        JOINT Head
        {
          OFFSET -1.195444 15.795018 1.801762
          CHANNELS 3 Zrotation Xrotation Yrotation
          End Site
          {
            OFFSET 0 0 0
          }
        }
      }
      JOINT ShoulderLeft
      {
        OFFSET -15.247832 -1.930426 6.078146
        CHANNELS 3 Zrotation Xrotation Yrotation
        JOINT ElbowLeft
        {
          OFFSET -1.421188 -18.412879 -6.064988
          CHANNELS 3 Zrotation Xrotation Yrotation
          JOINT WristLeft
          {
            OFFSET 6.970588 -5.730764 -24.684381
            CHANNELS 3 Zrotation Xrotation Yrotation
            JOINT HandLeft
            {
              OFFSET 4.024442 -1.973445 -3.361705
              CHANNELS 3 Zrotation Xrotation Yrotation
              JOINT HandTipLeft
              {
                OFFSET -3.052887 -1.940761 -5.515428
                CHANNELS 3 Zrotation Xrotation Yrotation
                End Site
                {
                  OFFSET 0 0 0
                }
              }
              JOINT ThumbLeft
              {
                OFFSET -0.597158 1.148206 -4.747037
                CHANNELS 3 Zrotation Xrotation Yrotation
                End Site
                {
                  OFFSET 0 0 0
                }
              }
            }
          }
        }
      }
      JOINT ShoulderRight
      {
        OFFSET 15.714224 -3.639831 -7.193478
        CHANNELS 3 Zrotation Xrotation Yrotation
        JOINT ElbowRight
        {
          OFFSET 5.117799 -19.860366 -3.342072
          CHANNELS 3 Zrotation Xrotation Yrotation
          JOINT WristRight
          {
            OFFSET -16.493244 -6.658939 -10.639632
            CHANNELS 3 Zrotation Xrotation Yrotation
            JOINT HandRight
            {
              OFFSET -4.326950 -1.571308 -0.756943
              CHANNELS 3 Zrotation Xrotation Yrotation
              JOINT HandTipRight
              {
                OFFSET -7.547527 -2.366835 -8.918658
                CHANNELS 3 Zrotation Xrotation Yrotation
                End Site
                {
                  OFFSET 0 0 0
                }
              }
              JOINT ThumbRight
              {
                OFFSET -2.273111 4.119634 -4.650190
                CHANNELS 3 Zrotation Xrotation Yrotation
                End Site
                {
                  OFFSET 0 0 0
                }
              }
            }
          }
        }
      }
    }
  }
  JOINT HipLeft
  {
    OFFSET -7.623751 -0.259582 -1.189565
    CHANNELS 3 Zrotation Xrotation Yrotation
    JOINT KneeLeft
    {
      OFFSET 0.887409 -36.857658 2.615999
      CHANNELS 3 Zrotation Xrotation Yrotation
      JOINT AnkleLeft
      {
        OFFSET 2.764752 -32.797582 7.920240
        CHANNELS 3 Zrotation Xrotation Yrotation
        JOINT FootLeft
        {
          OFFSET -3.354282 -3.714439 -11.231711
          CHANNELS 3 Zrotation Xrotation Yrotation
          End Site
          {
            OFFSET 0 0 0
          }
        }
      }
    }
  }
  JOINT HipRight
  {
    OFFSET 6.508903 0.768763 -6.352381
    CHANNELS 3 Zrotation Xrotation Yrotation
    JOINT KneeRight
    {
      OFFSET 6.431999 -35.757174 -0.921613
      CHANNELS 3 Zrotation Xrotation Yrotation
      JOINT AnkleRight
      {
        OFFSET 4.720833 -31.611435 9.048492
        CHANNELS 3 Zrotation Xrotation Yrotation
        JOINT FootRight
        {
          OFFSET -3.551571 -3.734352 -11.205034
          CHANNELS 3 Zrotation Xrotation Yrotation
          End Site
          {
            OFFSET 0 0 0
          }
        }
      }
    }
  }
}
MOTION
Frames: 15
Frame Time: 0.033333
51.898149 76.838096 399.936872 2.280272 -4.639637 31.210218 0.111923 -0.647230 -31.089894 -0.853624 -0.246410 0.043179 -58.187592 -14.856164 0.475279 0.000000 0.000000 0.000000 54.830549 32.782904 -39.440954 -99.937921 -9.403624 104.046417 -168.856481 58.668277 36.513831 133.816093 2.916035 -44.314653 0.000000 0.000000 0.000000 0.000000 0.000000 0.000000 -135.284910 -37.757186 -102.599988 178.847241 53.229990 -132.054053 -0.822253 5.427259 -19.398139 42.719923 -22.835870 -4.179224 0.000000 0.000000 0.000000 0.000000 0.000000 0.000000 0.451727 5.148883 -31.138142 5.049538 2.748829 1.333438 7.249720 -8.598764 -41.813090 0.000000 0.000000 0.000000 2.858993 3.027951 -31.492540 1.768966 2.267383 1.737446 4.633695 -19.588686 -27.206354 0.000000 0.000000 0.000000
52.394234 77.038096 400.288936 2.841593 -10.821878 41.809871 -0.001815 -0.753418 -41.576096 -0.934863 -0.159175 0.063462 -65.351002 -9.599583 8.601670 0.000000 0.000000 0.000000 58.596990 44.869116 -49.738376 -83.128008 -61.215869 110.208416 131.748743 56.768366 95.003680 151.968611 53.861617 -44.616377 0.000000 0.000000 0.000000 0.000000 0.000000 0.000000 -132.061412 -42.014996 -96.746717 178.795082 53.237282 -131.984689 3.278133 3.362009 -17.317804 33.792828 -21.501415 -8.634093 0.000000 0.000000 0.000000 0.000000 0.000000 0.000000 8.012316 12.882643 -42.451711 4.869249 -1.006420 1.579087 5.143139 -9.408605 -33.458397 0.000000 0.000000 0.000000 4.221338 6.452887 -42.476341 3.382077 4.899528 2.009882 3.335931 -16.625552 -22.515074 0.000000 0.000000 0.000000
52.811280 77.925497 400.224615 5.407456 -16.774534 26.449794 0.037360 -1.158196 -25.668266 -0.864745 0.046622 0.153037 -67.384487 -3.447876 16.979359 0.000000 0.000000 0.000000 88.951188 55.169666 -87.150360 98.671934 -31.348674 -84.089941 -177.281450 62.935579 97.438127 121.790922 72.137344 -13.994328 0.000000 0.000000 0.000000 0.000000 0.000000 0.000000 -129.706984 -48.505000 -99.732232 -170.682028 53.084077 -147.848971 2.311919 5.385858 -21.331153 26.356154 -13.184206 -8.869761 0.000000 0.000000 0.000000 0.000000 0.000000 0.000000 2.112992 18.248194 -25.941818 5.565326 2.608360 1.383050 4.217510 -11.629431 -28.368037 0.000000 0.000000 0.000000 2.619168 17.410838 -26.053050 5.271211 1.612999 1.671672 3.046627 -14.218262 -23.566250 0.000000 0.000000 0.000000
53.199793 79.865206 400.546556 9.049286 -26.852866 9.399602 0.398935 -0.854631 -7.273947 -0.808478 0.430276 0.237626 -70.869569 2.478541 27.691041 0.000000 0.000000 0.000000 135.414897 52.749268 -144.390300 177.625156 62.708127 -169.655958 -81.262968 51.587507 52.909269 36.690645 68.310215 69.453484 0.000000 0.000000 0.000000 0.000000 0.000000 0.000000 -116.647801 -54.540276 -77.455698 -177.784841 57.509364 -139.725480 -6.549866 6.339715 -17.686254 29.017359 -7.284838 -19.966182 0.000000 0.000000 0.000000 0.000000 0.000000 0.000000 -8.002325 26.545350 -4.892867 6.998638 4.804223 1.343731 2.959458 -14.010644 -22.052594 0.000000 0.000000 0.000000 -6.784458 32.224986 -4.368892 7.113686 -2.851675 1.375645 2.363884 -9.154102 -23.996987 0.000000 0.000000 0.000000
52.569907 78.872845 399.545570 9.146825 -31.714913 0.270261 0.515684 -0.629772 2.215356 -0.673683 0.623477 0.184725 -63.387564 6.694603 28.482041 0.000000 0.000000 0.000000 172.415370 37.401910 170.593273 -115.577908 39.733825 128.709016 -52.278562 41.869293 41.047992 80.804993 39.519013 24.312905 0.000000 0.000000 0.000000 0.000000 0.000000 0.000000 -123.959241 -52.164017 -68.057279 171.864257 50.824548 -119.007157 -4.355250 3.822605 -14.176653 14.830275 5.269581 -22.529957 0.000000 0.000000 0.000000 0.000000 0.000000 0.000000 -9.904190 26.505196 4.877494 4.834467 8.277604 1.033248 1.639696 -15.642080 -15.982619 0.000000 0.000000 0.000000 -13.374833 34.767894 7.552687 7.756711 -2.325332 1.520069 1.347609 -11.493112 -19.902879 0.000000 0.000000 0.000000
51.759664 77.832119 399.671329 10.393531 -35.754191 -1.828055 0.341932 -0.344707 5.076011 -0.602505 0.648458 0.177811 -46.478395 3.475833 19.222404 0.000000 0.000000 0.000000 -166.830653 23.850579 143.625610 -101.617349 7.595672 120.733408 -40.034920 32.623552 24.908937 82.480840 34.529520 20.647475 0.000000 0.000000 0.000000 0.000000 0.000000 0.000000 -128.921038 -50.610779 -45.231883 154.951893 41.361510 -88.371791 -9.745184 2.498972 -9.776097 7.423675 14.094098 -11.314241 0.000000 0.000000 0.000000 0.000000 0.000000 0.000000 -10.514521 29.757308 7.748273 3.306092 8.561321 1.006064 -0.080341 -14.916151 -11.022110 0.000000 0.000000 0.000000 -17.291170 38.779463 12.419408 8.138503 -3.529396 1.617096 0.220186 -16.266933 -12.749386 0.000000 0.000000 0.000000
51.134119 75.319327 399.733423 11.039603 -35.071565 -2.937030 -0.080139 -0.439849 6.479433 -0.395611 0.464357 0.144278 -21.032100 4.562363 6.205831 0.000000 0.000000 0.000000 -153.820035 21.576975 128.003838 -97.096904 -9.734509 126.231817 -34.797597 27.477992 20.057550 81.016604 29.019391 14.028989 0.000000 0.000000 0.000000 0.000000 0.000000 0.000000 -127.435722 -45.443680 -1.707858 133.660227 19.951018 -48.211813 -22.467238 -1.259676 -1.787196 11.300320 19.658274 -5.138429 0.000000 0.000000 0.000000 0.000000 0.000000 0.000000 -8.092473 27.743529 7.594970 0.367160 10.247257 0.904626 -0.514001 -16.946169 -7.474537 0.000000 0.000000 0.000000 -17.876628 37.869794 13.437497 7.534403 -3.509036 1.646919 -0.294741 -16.896951 -9.915610 0.000000 0.000000 0.000000
50.161742 72.919027 399.772967 11.633347 -29.512307 0.070246 -0.143135 -0.062710 3.095820 -0.466902 0.010184 0.254264 -2.879244 -1.340240 -2.640841 0.000000 0.000000 0.000000 -144.848124 31.826139 117.357258 -101.804146 -17.701673 137.646794 -26.120908 13.614109 39.164393 77.584384 8.638669 -16.076075 0.000000 0.000000 0.000000 0.000000 0.000000 0.000000 -117.187669 -21.889560 51.410863 110.926273 -15.384235 -11.906009 -31.182393 -4.362128 2.066084 16.375925 17.309200 2.967316 0.000000 0.000000 0.000000 0.000000 0.000000 0.000000 -4.030107 22.479433 2.801740 -1.877961 10.434176 0.901354 -0.768187 -17.637601 -7.257579 0.000000 0.000000 0.000000 -12.664153 32.861041 6.799961 5.596159 -2.817131 1.719243 -0.493609 -16.508693 -10.261030 0.000000 0.000000 0.000000
49.114316 71.667142 399.731960 9.397170 -21.928265 6.693988 -0.220502 0.679780 -4.797269 -0.430064 -0.474103 0.241247 8.645467 -5.113487 -5.272029 0.000000 0.000000 0.000000 -122.632429 54.696542 99.362122 -124.200745 -28.333550 165.818146 -31.529004 46.206050 132.799758 -8.030814 -48.152102 -109.347718 0.000000 0.000000 0.000000 0.000000 0.000000 0.000000 -103.554943 15.892405 72.523625 77.800129 -41.240843 -4.939466 -35.868262 -7.785807 5.311615 22.662493 11.603883 7.773348 0.000000 0.000000 0.000000 0.000000 0.000000 0.000000 2.262609 16.217953 -6.065303 -3.287270 8.944900 0.921969 -2.669301 -15.956660 -2.535059 0.000000 0.000000 0.000000 -3.905497 24.564991 -4.484643 3.665001 -1.028796 1.913549 -2.240271 -13.802945 -5.844217 0.000000 0.000000 0.000000
48.126509 71.368923 399.704318 6.015684 -12.171807 17.269241 0.483072 0.208957 -16.605564 -0.698011 -0.447543 0.190522 15.991903 -7.308643 -4.590505 0.000000 0.000000 0.000000 -78.992742 62.279715 58.942837 136.279440 -85.669361 122.766682 -14.234491 30.031054 69.259650 0.544412 -36.430409 -91.719261 0.000000 0.000000 0.000000 0.000000 0.000000 0.000000 -80.247407 37.762161 61.802474 44.931649 -45.196819 -15.939359 -33.558802 -7.380715 4.653132 26.017155 4.854420 11.094945 0.000000 0.000000 0.000000 0.000000 0.000000 0.000000 7.020395 7.500868 -17.378046 -3.632600 6.068079 0.958710 -5.064970 -13.082472 2.159515 0.000000 0.000000 0.000000 2.744446 11.694205 -17.612421 1.645815 1.374336 2.189244 -4.408111 -10.287062 -1.099171 0.000000 0.000000 0.000000
47.708384 70.940245 399.977239 2.853388 -3.975666 30.328863 0.815933 0.018365 -30.191163 -0.824407 -0.465951 0.083321 17.634054 -3.024172 -3.067450 0.000000 0.000000 0.000000 -41.698996 57.471816 26.046420 20.770267 -51.341794 31.521957 -16.819410 8.917681 47.373644 0.516824 -31.831958 -88.823649 0.000000 0.000000 0.000000 0.000000 0.000000 0.000000 -55.009088 40.896921 42.612880 28.521352 -41.570606 -21.134056 -28.184147 -5.096561 2.610825 23.272055 -0.950399 20.876151 0.000000 0.000000 0.000000 0.000000 0.000000 0.000000 8.760531 0.748163 -29.924034 -2.740477 1.746833 1.121725 -7.431171 -10.211959 5.662650 0.000000 0.000000 0.000000 3.585106 -0.695493 -31.012279 0.443075 3.750824 2.498895 -6.504363 -6.846352 2.930435 0.000000 0.000000 0.000000
47.839041 70.938440 400.450332 1.339734 1.818381 41.945707 0.780699 -0.324765 -41.873842 -0.845845 -0.496474 0.026993 12.181100 3.625005 -1.503012 0.000000 0.000000 0.000000 -28.302334 50.939588 14.745149 13.843360 -41.100546 32.651088 -16.712891 5.188841 40.367444 2.653236 -25.523297 -79.102830 0.000000 0.000000 0.000000 0.000000 0.000000 0.000000 -39.270501 36.354381 29.450179 20.521916 -36.984521 -21.316132 -25.754593 -1.796497 -0.857519 20.560642 -2.040280 25.287583 0.000000 0.000000 0.000000 0.000000 0.000000 0.000000 8.029318 -1.753003 -41.030611 -0.826393 -3.351102 1.511713 -9.214010 -7.800692 7.735040 0.000000 0.000000 0.000000 -0.903258 -8.791503 -42.989002 0.100613 6.196836 2.800692 -8.239466 -4.143261 5.888610 0.000000 0.000000 0.000000
47.921273 72.836181 400.361321 1.475452 4.288195 36.183892 0.709477 -0.311124 -36.106024 -0.802026 -0.562330 0.038976 4.083019 8.729353 -0.121649 0.000000 0.000000 0.000000 -23.108223 50.677707 10.530924 9.332356 -41.474231 34.256698 -16.219331 4.234747 36.072486 4.205412 -23.418010 -75.329518 0.000000 0.000000 0.000000 0.000000 0.000000 0.000000 -31.578596 29.648219 21.327104 17.193235 -31.615338 -17.349245 -27.433584 6.702454 -9.829019 25.505582 -4.955200 32.260412 0.000000 0.000000 0.000000 0.000000 0.000000 0.000000 3.217108 -3.260764 -35.456643 1.850527 -1.464717 1.719943 -9.778073 -6.174446 7.759120 0.000000 0.000000 0.000000 0.613238 -7.757751 -36.388597 0.312256 2.597770 2.397306 -9.326263 -2.590724 6.984910 0.000000 0.000000 0.000000
47.940910 74.807652 400.439922 3.602795 2.303534 37.872900 0.788612 -0.147619 -37.790649 -0.849616 -0.579004 0.126155 -1.303742 13.117970 0.354129 0.000000 0.000000 0.000000 -24.940528 50.816570 10.662599 7.475272 -41.845511 36.356935 -14.228161 4.842167 30.310880 6.247034 -17.167319 -63.504031 0.000000 0.000000 0.000000 0.000000 0.000000 0.000000 -31.594963 26.828182 18.727711 16.446184 -28.500830 -11.794697 -17.235302 4.845065 -8.378321 18.416419 -5.081983 24.084149 0.000000 0.000000 0.000000 0.000000 0.000000 0.000000 1.292346 1.486851 -37.655181 4.448446 -2.352232 2.100177 -10.338180 -2.962040 5.304181 0.000000 0.000000 0.000000 0.407708 -3.910174 -38.044529 0.707430 1.570695 2.314551 -9.609211 -1.002454 5.548469 0.000000 0.000000 0.000000
47.285717 74.783551 399.478862 0.670568 4.656506 39.410910 0.738775 -0.304458 -39.321189 -0.698256 -0.739934 0.013778 1.826172 10.754232 0.531698 0.000000 0.000000 0.000000 -24.110211 47.627806 11.349375 7.856656 -47.089030 40.160122 -13.279022 7.382133 27.041996 8.260181 -18.255108 -60.320561 0.000000 0.000000 0.000000 0.000000 0.000000 0.000000 -34.744757 26.327323 21.358801 21.697872 -34.238386 -7.163059 -7.079428 6.703815 -15.171638 10.232069 -6.202836 25.430018 0.000000 0.000000 0.000000 0.000000 0.000000 0.000000 2.826447 -3.599031 -38.708035 3.193591 -1.921204 1.949069 -10.615938 -3.545687 6.382750 0.000000 0.000000 0.000000 0.122179 -9.608288 -39.791145 0.360144 3.572216 2.613856 -9.765120 -1.882154 6.487561 0.000000 0.000000 0.000000
